<svg xmlns="http://www.w3.org/2000/svg" xmlns:xlink="http://www.w3.org/1999/xlink" width="47" height="76" viewBox="0 0 47 76">
    <defs>
        <filter id="a" width="135.3%" height="185.7%" x="-17.6%" y="-42.9%" filterUnits="objectBoundingBox">
            <feGaussianBlur in="SourceGraphic" stdDeviation="1"/>
        </filter>
        <path id="b" d="M46.603 66H0V.115h46.603z"/>
    </defs>
    <g fill="none" fill-rule="evenodd">
        <ellipse cx="23.5" cy="65.5" fill="#1E2A37" filter="url(#a)" opacity=".902" rx="8.5" ry="3.5"/>
        <path fill="#FFF" d="M23.28.115C10.416.122-.007 10.543 0 23.39a23.25 23.25 0 0 0 2.777 11.002l17.17 29.684a3.857 3.857 0 0 0 6.675 0l17.221-29.73a23.077 23.077 0 0 0 2.115-5.572c2.994-12.486-4.717-25.03-17.22-28.02a23.297 23.297 0 0 0-5.457-.64z"/>
        <mask id="c" fill="#fff">
            <use xlink:href="#b"/>
        </mask>
        <path fill="#1C3A54" d="M24.074 62.61a.918.918 0 0 1-1.586 0L5.34 32.998a20.178 20.178 0 0 1-1.85-4.87C.874 17.214 7.616 6.25 18.547 3.638c10.93-2.61 21.91 4.123 24.524 15.038a20.297 20.297 0 0 1 0 9.452 20.047 20.047 0 0 1-1.828 4.826L24.074 62.61zM23.281.115C10.415.122-.008 10.543 0 23.39a23.25 23.25 0 0 0 2.777 11.002l17.17 29.684a3.857 3.857 0 0 0 6.675 0l17.221-29.73a23.077 23.077 0 0 0 2.115-5.572c2.994-12.486-4.717-25.03-17.22-28.02a23.297 23.297 0 0 0-5.457-.64z" mask="url(#c)"/>
        <path fill="#0FAFE6" d="M23.5 38C15.492 38 9 31.285 9 23c0-8.284 6.492-15 14.5-15S38 14.716 38 23c-.008 8.281-6.495 14.992-14.5 15m0-33C13.835 5 6 13.059 6 23s7.835 18 17.5 18S41 32.941 41 23c-.012-9.936-7.84-17.987-17.5-18"/>
    </g>
</svg>